# xmcd CD database file
#
# Track frame offsets:
#	150
#	20849
#	39152
#	51037
#	69259
#	84158
#	101416
#	105320
#	120198
#	137214
#	147793
#	171081
#
# Disc length: 2372 seconds
#
# Revision: 0
# Processed by: cddbd v1.5.1PL2 Copyright (c) Steve Scherf et al.
# Submitted via: CDex 1.51
#
DISCID=8c09420c
DTITLE=Delia Mayer - These days
DYEAR=2066
DGENRE=Jazz
TTITLE0=Shefish and hefish
TTITLE1=Empty hours
TTITLE2=Little man
TTITLE3=While I close my eyes
TTITLE4=Greeting my fears
TTITLE5=In and out
TTITLE6=A very short song
TTITLE7=Sliding
TTITLE8=The false friends
TTITLE9=Fun of lying
TTITLE10=These days
TTITLE11=Fun of lying (reprise)
EXTD=YEAR: 2066
EXTT0=
EXTT1=
EXTT2=
EXTT3=
EXTT4=
EXTT5=
EXTT6=
EXTT7=
EXTT8=
EXTT9=
EXTT10=
EXTT11=
PLAYORDER=
